<svg width="52" height="49" viewBox="0 0 52 49" fill="none" xmlns="http://www.w3.org/2000/svg">
<path d="M44.026 0H7.84032C3.51023 0 0 3.50354 0 7.82538V41.1337C0 45.4555 3.51023 48.9591 7.84032 48.9591H44.026C48.3561 48.9591 51.8664 45.4555 51.8664 41.1337V7.82538C51.8664 3.50354 48.3561 0 44.026 0Z" fill="url(#paint0_linear_113_35)" fill-opacity="0.3"/>
<path d="M14.0087 25.1921C14.0087 21.8885 14.0087 18.5863 14.0087 15.2856C14.0087 13.1006 15.5969 11.6957 18.0927 11.6913C21.496 11.6913 24.8789 11.676 28.2709 11.7066C28.6811 11.7224 29.0744 11.8683 29.3895 12.1218C32.4646 14.8471 35.5162 17.5907 38.5444 20.3525C38.8033 20.6012 38.9569 20.9337 38.9755 21.2854C39.0027 25.9467 39.0073 30.6123 38.9891 35.2822C38.9891 37.2181 37.3805 38.6624 35.1706 38.6711C29.3713 38.693 23.5713 38.693 17.7705 38.6711C15.6219 38.6711 14.0132 37.2028 14.0019 35.3128C13.9951 31.9393 14.0087 28.5657 14.0087 25.1921ZM26.6419 13.365C26.554 13.3297 26.4628 13.3027 26.3696 13.2841C23.6636 13.2841 20.9575 13.2805 18.2515 13.2732C16.5499 13.2732 15.8193 13.9287 15.8193 15.421C15.8193 21.9482 15.8193 28.4747 15.8193 35.0004C15.8193 36.4512 16.5521 37.0958 18.222 37.0958C23.7445 37.0958 29.2654 37.0958 34.7849 37.0958C36.4616 37.0958 37.1899 36.4556 37.1899 35.0026C37.1899 31.0799 37.1899 27.1586 37.1899 23.2388C37.1899 23.0072 37.1649 22.7756 37.149 22.4675C35.3339 22.4675 33.5574 22.4675 31.7877 22.4675C28.7111 22.45 26.6487 20.6431 26.6396 17.9621C26.6373 16.4349 26.6419 14.9076 26.6419 13.365ZM28.6226 13.6643C28.6226 15.4451 28.5364 17.0444 28.6521 18.6351C28.7315 19.7276 29.6186 20.5273 30.7962 20.6321C32.6113 20.7938 34.4627 20.6758 36.4094 20.6758L28.6226 13.6643Z" fill="white"/>
<path d="M18 27.6875V25.6875H33V27.6875H18Z" fill="white"/>
<path d="M18 22.6875V19.6875H24V22.6875H18Z" fill="white"/>
<path d="M33 30.6875V33.6875H18V30.6875H33Z" fill="white"/>
<defs>
<linearGradient id="paint0_linear_113_35" x1="36604.2" y1="9160.24" x2="41736" y2="1570.21" gradientUnits="userSpaceOnUse">
<stop stop-color="#4FB9EF"/>
<stop offset="1" stop-color="#57E5EE"/>
</linearGradient>
</defs>
</svg>
