<svg width="52" height="49" viewBox="0 0 52 49" fill="none" xmlns="http://www.w3.org/2000/svg">
<path d="M44.026 0H7.84033C3.51024 0 0 3.50354 0 7.82538V41.1337C0 45.4555 3.51024 48.9591 7.84033 48.9591H44.026C48.3561 48.9591 51.8664 45.4555 51.8664 41.1337V7.82538C51.8664 3.50354 48.3561 0 44.026 0Z" fill="url(#paint0_linear_113_41)" fill-opacity="0.3"/>
<path d="M14.9081 14.8562C14.934 15.3262 14.9411 15.7469 14.9882 16.1676C15.0643 16.5955 15.2865 16.9838 15.617 17.2666C15.9476 17.5494 16.3661 17.7092 16.8013 17.7188C17.13 17.7228 17.4538 17.6396 17.7397 17.4778C18.0256 17.3159 18.2633 17.0811 18.4285 16.7975C18.6257 16.4494 18.7265 16.0551 18.7205 15.6553C18.7205 15.3967 18.7205 15.1382 18.7205 14.8656H30.3341C30.3341 15.164 30.3199 15.4719 30.3341 15.7775C30.329 16.1669 30.4423 16.5488 30.659 16.8727C30.8104 17.0939 31.0075 17.2803 31.2369 17.4193C31.4664 17.5583 31.723 17.6468 31.9895 17.6788C32.4348 17.7383 32.8867 17.6343 33.2609 17.3862C33.6352 17.138 33.9063 16.7626 34.024 16.3298C34.0738 16.1303 34.1038 15.9264 34.1134 15.7211C34.1276 15.4461 34.1134 15.1687 34.1134 14.8914C35.5051 14.6681 36.6142 15.0677 37.0286 16.5883C37.0405 16.6455 37.0453 16.7039 37.0428 16.7622V24.283C37.0428 24.3324 37.0428 24.3818 37.0428 24.4476H35.0883V20.6637H13.9733V33.6253C13.9733 34.0507 13.9733 34.0507 14.3901 34.0507H25.4574V36.0085H25.1937C21.4425 36.0085 17.6891 36.0085 13.9356 36.0085C13.2056 36.0085 12.2143 35.2353 12.0965 34.5443C12.0434 34.3031 12.0111 34.0577 12 33.811C12 28.1422 12 22.4733 12 16.8045C12 15.7963 12.9961 14.8185 13.9733 14.835C14.2865 14.8562 14.5949 14.8562 14.9081 14.8562Z" fill="white"/>
<path d="M35.539 41.7673C32.9347 41.7814 31.0909 40.9917 29.5862 39.4617C28.8099 38.6912 28.2126 37.7599 27.8366 36.7336C27.4606 35.7074 27.3152 34.6112 27.4104 33.5226C27.512 31.6291 28.34 29.8474 29.7228 28.5471C30.4989 27.7783 31.4334 27.1872 32.4614 26.8151C33.4893 26.4429 34.5861 26.2985 35.6756 26.3919C37.5731 26.5038 39.3555 27.3373 40.6559 28.721C42.2595 30.3662 42.9424 32.3804 42.8081 34.6719C42.5962 38.2983 39.4055 41.8354 35.539 41.7673ZM35.0869 39.7954C36.2164 39.7994 37.3219 39.4701 38.2646 38.849C39.2072 38.2279 39.945 37.3427 40.3852 36.3045C40.8254 35.2663 40.9485 34.1214 40.7389 33.0136C40.5293 31.9058 39.9965 30.8845 39.2073 30.078C38.4181 29.2715 37.4078 28.7157 36.3031 28.4804C35.1985 28.2451 34.0488 28.3408 32.9985 28.7555C31.9482 29.1703 31.0441 29.8855 30.3997 30.8114C29.7553 31.7373 29.3994 32.8326 29.3767 33.9597C29.3575 34.7198 29.4911 35.4761 29.7695 36.1838C30.048 36.8915 30.4656 37.5364 30.9979 38.0803C31.5302 38.6243 32.1662 39.0563 32.8685 39.3509C33.5708 39.6454 34.3251 39.7966 35.0869 39.7954Z" fill="white"/>
<path d="M15.8588 22.5215H19.7135V26.3712H15.8588V22.5215Z" fill="white"/>
<path d="M25.4722 26.37H21.6151V22.525H25.4722V26.37Z" fill="white"/>
<path d="M15.8623 28.3185H19.717V32.1659H15.8623V28.3185Z" fill="white"/>
<path d="M21.6151 32.1682V28.3185H25.4698V32.1682H21.6151Z" fill="white"/>
<path d="M27.4353 22.509C28.6715 22.509 29.8913 22.509 31.1087 22.509C31.2688 22.509 31.3065 22.5819 31.3065 22.7253C31.3065 23.9333 31.3065 25.1413 31.3065 26.3705H27.4353V22.509Z" fill="white"/>
<path d="M15.8414 13.8647C15.8414 13.2443 15.8578 12.6238 15.8414 12.0033C15.8201 11.774 15.8876 11.5452 16.0298 11.3639C16.1721 11.1826 16.3785 11.0624 16.6067 11.028C16.8563 10.9693 17.119 11.0101 17.3389 11.1418C17.5587 11.2735 17.7185 11.4856 17.784 11.733C17.8044 11.8097 17.8139 11.8888 17.8123 11.9681V15.8178C17.8133 15.9501 17.7876 16.0813 17.7369 16.2036C17.6862 16.3258 17.6114 16.4367 17.517 16.5296C17.4226 16.6225 17.3105 16.6956 17.1873 16.7445C17.0641 16.7934 16.9323 16.8172 16.7997 16.8143C16.6717 16.8131 16.5453 16.7865 16.4277 16.7361C16.3101 16.6856 16.2037 16.6123 16.1147 16.5205C16.0258 16.4286 15.956 16.32 15.9095 16.201C15.8629 16.082 15.8406 15.9549 15.8437 15.8272L15.8414 13.8647Z" fill="white"/>
<path d="M31.2445 13.8644C31.2445 13.2439 31.261 12.6235 31.2445 12.003C31.2238 11.7735 31.2914 11.5447 31.4335 11.3632C31.5757 11.1816 31.7817 11.0608 32.0098 11.0253C32.2593 10.9678 32.5215 11.0092 32.7411 11.1407C32.9606 11.2722 33.1206 11.4836 33.1872 11.7304C33.2075 11.807 33.2171 11.8861 33.2154 11.9654C33.2154 13.2486 33.2154 14.5319 33.2154 15.8151C33.2167 15.9473 33.1914 16.0785 33.1409 16.2007C33.0905 16.323 33.0159 16.4339 32.9217 16.5268C32.8275 16.6198 32.7155 16.6929 32.5924 16.7418C32.4694 16.7907 32.3377 16.8145 32.2052 16.8116C32.0771 16.8107 31.9503 16.7844 31.8324 16.734C31.7146 16.6837 31.6079 16.6105 31.5187 16.5186C31.4295 16.4267 31.3595 16.318 31.3128 16.1989C31.2662 16.0797 31.2437 15.9524 31.2469 15.8245L31.2445 13.8644Z" fill="white"/>
<path d="M35.1282 34.0498C36.0937 34.0498 37.0262 34.0733 37.9539 34.0498C38.0837 34.0434 38.2134 34.0627 38.3356 34.1064C38.4579 34.1501 38.5704 34.2174 38.6666 34.3045C38.7628 34.3916 38.8409 34.4967 38.8964 34.6139C38.9519 34.7311 38.9837 34.858 38.99 34.9875C38.9964 35.117 38.9771 35.2465 38.9333 35.3685C38.8895 35.4905 38.8221 35.6028 38.7348 35.6988C38.6476 35.7948 38.5422 35.8728 38.4248 35.9282C38.3074 35.9836 38.1802 36.0153 38.0505 36.0216H34.0686C33.8302 36.0134 33.6037 35.9152 33.435 35.7469C33.2663 35.5785 33.1679 35.3524 33.1597 35.1144C33.1597 33.7889 33.1597 32.4634 33.1597 31.1378C33.1627 30.9578 33.2185 30.7826 33.3202 30.6339C33.4219 30.4852 33.565 30.3695 33.7319 30.3011C33.907 30.2256 34.0999 30.2007 34.2885 30.2294C34.4772 30.2581 34.6539 30.3391 34.7986 30.4633C34.9088 30.569 34.9955 30.6966 35.0531 30.8379C35.1107 30.9792 35.1379 31.1311 35.1329 31.2835C35.1212 32.1884 35.1282 33.1026 35.1282 34.0498Z" fill="white"/>
<defs>
<linearGradient id="paint0_linear_113_41" x1="1057.55" y1="21089.6" x2="6189.39" y2="13500.1" gradientUnits="userSpaceOnUse">
<stop stop-color="#4FB9EF"/>
<stop offset="1" stop-color="#57E5EE"/>
</linearGradient>
</defs>
</svg>
