<svg width="52" height="49" viewBox="0 0 52 49" fill="none" xmlns="http://www.w3.org/2000/svg">
<path opacity="0.3" d="M43.7745 0H7.79553C3.49018 0 0 3.48352 0 7.78067V40.8987C0 45.1958 3.49018 48.6793 7.79553 48.6793H43.7745C48.0798 48.6793 51.57 45.1958 51.57 40.8987V7.78067C51.57 3.48352 48.0798 0 43.7745 0Z" fill="url(#paint0_linear_113_18)"/>
<path d="M25.1609 18.1129C25.1329 21.5586 22.4833 24.2052 19.0937 24.1858C15.9392 24.1643 13.2681 21.3863 13.2681 18.1323C13.2681 14.7577 16.0449 11.9323 19.3094 12.0012C20.8929 12.0508 22.3934 12.7191 23.4879 13.8622C24.5824 15.0054 25.1832 16.5319 25.1609 18.1129V18.1129ZM19.2641 14.4519C18.7844 14.4482 18.3087 14.5396 17.8647 14.7209C17.4206 14.9022 17.0171 15.1696 16.6774 15.5078C16.3378 15.846 16.0689 16.2482 15.8862 16.6909C15.7036 17.1337 15.6108 17.6083 15.6134 18.0871C15.6005 20.0554 17.223 21.7481 19.139 21.7739C20.1118 21.7905 21.0513 21.4206 21.751 20.7458C22.4506 20.0709 22.8529 19.1463 22.8695 18.1754C22.8861 17.2044 22.5156 16.2666 21.8394 15.5684C21.1633 14.8701 20.2369 14.4685 19.2641 14.4519V14.4519Z" fill="white"/>
<path d="M16.6458 24.938L16.9198 25.8188C16.9737 25.9956 16.9571 26.1864 16.8735 26.3513C16.7899 26.5162 16.6457 26.6425 16.471 26.7039C15.91 26.8977 15.3728 27.0851 14.8291 27.2444C14.6249 27.2793 14.4396 27.3847 14.3055 27.5421C14.1714 27.6996 14.097 27.8991 14.0955 28.1058C13.8905 29.8825 13.6165 31.6484 13.3619 33.4186C13.3467 33.5088 13.3138 33.5952 13.2652 33.6728C13.2165 33.7504 13.1529 33.8176 13.0782 33.8706C13.0034 33.9237 12.9189 33.9614 12.8294 33.9818C12.74 34.0021 12.6475 34.0047 12.5571 33.9892L11.5904 33.8406C11.407 33.8084 11.2434 33.706 11.1346 33.5551C11.0258 33.4042 10.9803 33.2169 11.0079 33.0331C11.1913 31.7819 11.3682 30.5565 11.5581 29.3312C11.7113 28.3449 11.9357 27.365 12.0371 26.3722C12.0932 25.8339 12.296 25.5884 12.803 25.4333C13.7697 25.1383 14.7233 24.8066 15.7331 24.4599C15.8244 24.4297 15.9209 24.4182 16.0168 24.4261C16.1126 24.4339 16.2059 24.461 16.2911 24.5056C16.3763 24.5502 16.4516 24.6115 16.5125 24.6858C16.5735 24.7601 16.6188 24.8459 16.6458 24.938V24.938Z" fill="white"/>
<path d="M30.0403 34.0392V31.399H39.4562V34.0392H30.0403Z" fill="white"/>
<path d="M30.0314 23.0012V20.3653H39.4689V23.0012H30.0314Z" fill="white"/>
<path d="M39.5025 25.8598V28.5H30.0671V25.8598H39.5025Z" fill="white"/>
<path d="M21.5639 25.5098L21.5876 25.428C21.6331 25.2829 21.7071 25.1484 21.8054 25.0322C21.9036 24.916 22.024 24.8205 22.1596 24.7514C22.2952 24.6822 22.4432 24.6407 22.5951 24.6293C22.747 24.6179 22.8996 24.6368 23.044 24.685C24.0063 25.0059 24.9514 25.3311 25.8878 25.6649C25.9886 25.7214 26.0759 25.7992 26.1433 25.893C26.2108 25.9867 26.2569 26.0941 26.2783 26.2075C26.6322 28.3374 26.9645 30.4693 27.3075 32.6552C27.3319 32.8053 27.326 32.9588 27.29 33.1066C27.2541 33.2544 27.1888 33.3935 27.0981 33.5158C27.0074 33.638 26.8931 33.7409 26.762 33.8183C26.6308 33.8958 26.4854 33.9462 26.3344 33.9667H26.3107C26.0175 34.0062 25.7203 33.931 25.4814 33.7568C25.2426 33.5825 25.0804 33.3228 25.0291 33.032C24.7809 31.6193 24.5177 30.2475 24.4012 28.865C24.3106 27.7882 23.8488 27.3166 22.8908 27.0991C22.6966 27.056 22.5068 27 22.3126 26.9376C22.0242 26.8464 21.7837 26.6452 21.6434 26.3777C21.5032 26.1102 21.4746 25.7982 21.5639 25.5098V25.5098Z" fill="white"/>
<path d="M30.0671 14.8336H34.6953V17.4393H30.0671V14.8336Z" fill="white"/>
<defs>
<linearGradient id="paint0_linear_113_18" x1="11704.8" y1="9107.9" x2="16807.3" y2="1561.24" gradientUnits="userSpaceOnUse">
<stop stop-color="#4FB9EF"/>
<stop offset="1" stop-color="#57E5EE"/>
</linearGradient>
</defs>
</svg>
