<svg width="263" height="99" viewBox="0 0 263 99" fill="none" xmlns="http://www.w3.org/2000/svg">
<path d="M90.3931 20.2291C90.0564 17.8398 88.9213 15.6431 87.1805 14.0117C85.4397 12.3802 83.2003 11.4145 80.8422 11.2782H79.5545C77.6959 11.4396 75.9087 12.0851 74.3636 13.1532C72.8185 14.2212 71.567 15.6761 70.7284 17.3791C68.0337 21.8327 66.2941 26.7745 63.9064 31.3763C62.107 34.3396 59.327 38.0524 55.464 37.2941C54.6688 37.1319 53.9192 36.7894 53.2706 36.292C52.6219 35.7945 52.0907 35.1547 51.716 34.4197C51.3412 33.6846 51.1325 32.8731 51.1053 32.0447C51.078 31.2163 51.2328 30.3923 51.5584 29.6332C51.7806 29.0875 52.1151 28.5971 52.539 28.1951C53.4741 27.453 54.1936 26.4645 54.6203 25.3358C55.047 24.2072 55.1648 22.9811 54.9609 21.7892C54.0399 15.1218 44.958 13.8406 42.2803 20.046C41.24 22.4428 41.9307 25.2057 40.9415 27.646C39.7636 31.5588 37.2205 34.893 33.7954 37.0152C31.6208 38.4707 28.8067 38.7584 27.0586 40.8414C20.6287 47.4565 26.3337 58.8564 35.3559 57.2963C36.8119 57.0789 38.1968 56.5122 39.3974 55.6427C40.598 54.7732 41.58 53.6255 42.2633 52.2936C42.8421 51.2111 43.7812 50.3763 44.9104 49.9406C46.0397 49.5049 47.2843 49.4971 48.4186 49.9187C49.553 50.3403 50.502 51.1633 51.0937 52.2386C51.6853 53.3138 51.8804 54.5702 51.6437 55.7798C49.9381 61.0092 45.9643 64.9486 43.9688 69.9949C42.4765 73.2981 41.0779 76.9674 41.9478 80.6105C42.5363 83.3603 44.0838 85.7973 46.3014 87.4666C48.519 89.136 51.2552 89.9235 53.9992 89.6823C56.7433 89.4412 59.3077 88.1877 61.2139 86.1559C63.1201 84.1242 64.2377 81.4529 64.3583 78.6407C63.8178 69.5188 65.4445 60.3986 69.0997 52.0583C72.3396 44.779 77.054 38.2852 82.9314 33.0061C84.1253 31.9341 85.3959 30.9579 86.641 29.9382C87.7561 29.0309 88.6734 27.8955 89.3342 26.6047C89.9951 25.314 90.3848 23.8964 90.4784 22.4428V21.0919C90.4357 20.8043 90.4613 20.5167 90.3931 20.2291ZM24.9608 35.0455C21.9168 35.6634 18.7573 35.0273 16.17 33.2759C13.5826 31.5244 11.777 28.7993 11.146 25.6937C9.56843 18.7213 15.0261 11.6094 21.9676 11.2782H23.3746C37.1041 12.5158 38.3747 31.9951 24.9949 35.0717L24.9608 35.0455Z" fill="url(#paint0_linear_101_190)"/>
<path d="M125.935 15.9235H113.528C111.331 15.9231 109.179 16.5602 107.322 17.7605C105.465 18.9608 103.98 20.6752 103.039 22.7042L83.681 64.3907H101.163L103.721 57.6361H114.27L114.756 64.3907H126.404L131.99 56.2765L125.935 15.9235ZM107.635 46.1926L112.999 32.6137L113.758 46.1926H107.635Z" fill="#A0B3C1"/>
<path d="M188.085 15.8538H167.227L160.695 28.378L157.94 15.8538H137.09L146.675 39.2202L132.451 59.5797L131.095 61.532L129.1 64.3907H149.958L157.318 50.1059L160.319 64.3907H181.178L171.405 39.2202L188.085 15.8538Z" fill="#A0B3C1"/>
<path d="M189.731 15.8538H207.281L199.777 64.3907H182.227L189.731 15.8538Z" fill="#A0B3C1"/>
<path d="M202.957 59.1873L211.835 46.114C215.689 49.6002 220.226 51.3869 224.08 51.3869C226.007 51.3869 227.039 50.8988 227.039 49.9837C227.039 49.2777 226.076 48.7809 223.185 48.3626C216.576 47.3777 208.944 42.9502 208.944 35.2892C208.944 23.3315 218.989 15.4526 231.584 15.4526C238.048 15.4526 243.967 17.5618 247.616 21.2223L239.362 32.9709C235.158 29.659 231.687 28.8833 228.625 28.8833C226.971 28.8833 225.598 29.3104 225.598 30.2255C225.598 30.9315 226.451 31.2104 228.898 31.559C232.149 32.0726 235.262 33.2589 238.048 35.0452C241.562 37.4333 243.421 40.1787 243.421 44.3273C243.421 56.8428 233.188 65.2446 220.157 65.2446C215.467 65.2359 209.413 64.7391 202.957 59.1873Z" fill="#A0B3C1"/>
<path d="M89.3741 74.9805L90.3922 82.3779L93.9664 74.9805H97.3062L95.4605 85.6445H92.941L93.3951 83.0298L94.4791 78.2104L90.7437 85.6445H89.0811L87.8726 77.9321L87.1988 83.2788L86.7813 85.6445H84.2764L86.1221 74.9805H89.3741ZM103.503 83.6523H100.097L99.1519 85.6445H96.3907L102.038 74.9805H104.396L106.366 85.6445H103.759L103.503 83.6523ZM101.034 81.6675H103.246L102.777 77.9907L101.034 81.6675ZM111.786 81.8799H110.395L109.735 85.6445H107.231L109.076 74.9805L112.841 74.9878C114.047 74.9878 114.975 75.271 115.624 75.8374C116.278 76.3989 116.571 77.168 116.503 78.1445C116.449 78.916 116.227 79.5557 115.836 80.0635C115.446 80.5664 114.899 80.9644 114.196 81.2573L115.631 85.52V85.6445H112.958L111.786 81.8799ZM110.732 79.895L112.196 79.9097C112.597 79.9097 112.943 79.812 113.236 79.6167C113.534 79.4214 113.747 79.1553 113.874 78.8184C114.001 78.4766 114.037 78.147 113.983 77.8296C113.886 77.2876 113.539 77.002 112.943 76.9727L111.244 76.9653L110.732 79.895ZM126.068 76.9653H122.963L121.461 85.6445H118.949L120.458 76.9653H117.404L117.755 74.9805H126.413L126.068 76.9653ZM128.346 85.6445H125.841L127.694 74.9805H130.192L128.346 85.6445ZM136.535 83.6523H133.129L132.184 85.6445H129.423L135.07 74.9805H137.428L139.398 85.6445H136.791L136.535 83.6523ZM134.066 81.6675H136.278L135.81 77.9907L134.066 81.6675ZM143.112 83.667H147.455L147.111 85.6445H140.263L142.108 74.9805H144.621L143.112 83.667ZM158.2 83.6523H154.794L153.849 85.6445H151.088L156.735 74.9805H159.093L161.064 85.6445H158.456L158.2 83.6523ZM155.732 81.6675H157.943L157.475 77.9907L155.732 81.6675ZM166.483 81.8799H165.092L164.433 85.6445H161.928L163.773 74.9805L167.538 74.9878C168.744 74.9878 169.672 75.271 170.321 75.8374C170.976 76.3989 171.269 77.168 171.2 78.1445C171.147 78.916 170.924 79.5557 170.534 80.0635C170.143 80.5664 169.596 80.9644 168.893 81.2573L170.329 85.52V85.6445H167.655L166.483 81.8799ZM165.429 79.895L166.894 79.9097C167.294 79.9097 167.641 79.812 167.934 79.6167C168.232 79.4214 168.444 79.1553 168.571 78.8184C168.698 78.4766 168.734 78.147 168.681 77.8296C168.583 77.2876 168.236 77.002 167.641 76.9727L165.941 76.9653L165.429 79.895ZM180.766 76.9653H177.66L176.159 85.6445H173.647L175.155 76.9653H172.101L172.453 74.9805H181.11L180.766 76.9653ZM186.112 82.7588C186.22 82.207 185.922 81.7798 185.219 81.4771L184.018 80.979C182.333 80.2222 181.532 79.1919 181.615 77.8882C181.649 77.2925 181.855 76.7627 182.231 76.2988C182.607 75.8301 183.127 75.4663 183.791 75.2075C184.455 74.9487 185.18 74.8242 185.966 74.834C187.021 74.8535 187.868 75.1611 188.507 75.7568C189.152 76.3525 189.469 77.1509 189.46 78.1519H186.969C186.984 77.7417 186.896 77.4146 186.706 77.1704C186.52 76.9214 186.212 76.792 185.783 76.7822C185.363 76.7725 184.992 76.8701 184.669 77.0752C184.347 77.2803 184.157 77.5562 184.098 77.9028C184.005 78.3911 184.367 78.7915 185.182 79.104C186.003 79.4165 186.598 79.6851 186.969 79.9097C188.136 80.6079 188.683 81.5503 188.61 82.7368C188.571 83.3521 188.373 83.8916 188.017 84.3555C187.66 84.8193 187.165 85.1782 186.53 85.4321C185.9 85.686 185.192 85.8081 184.406 85.7983C183.83 85.7886 183.295 85.6982 182.802 85.5273C182.309 85.3564 181.886 85.1074 181.535 84.7803C180.822 84.1211 180.48 83.2544 180.509 82.1802L183.022 82.1875C182.992 82.7344 183.097 83.1494 183.336 83.4326C183.576 83.7109 183.979 83.8501 184.545 83.8501C184.965 83.8501 185.314 83.7549 185.592 83.5645C185.876 83.3691 186.049 83.1006 186.112 82.7588Z" fill="#A0B3C1"/>
<defs>
<linearGradient id="paint0_linear_101_190" x1="32.6441" y1="-8.2185" x2="101.823" y2="107.079" gradientUnits="userSpaceOnUse">
<stop stop-color="#39D0B5"/>
<stop offset="1" stop-color="#527AF5"/>
</linearGradient>
</defs>
</svg>
