<svg width="56" height="55" viewBox="0 0 56 55" fill="none" xmlns="http://www.w3.org/2000/svg">
<path d="M55.6343 6.23849C55.3987 4.57324 54.6046 3.04222 53.3867 1.90516C52.1688 0.768087 50.6021 0.0949757 48.9523 0H48.0514C46.7511 0.112503 45.5008 0.562417 44.4198 1.30681C43.3388 2.0512 42.4632 3.06523 41.8765 4.25214C39.9912 7.3562 38.7742 10.8004 37.1037 14.0078C35.8448 16.0731 33.8999 18.6608 31.1972 18.1323C30.6409 18.0192 30.1165 17.7805 29.6627 17.4338C29.2089 17.0871 28.8372 16.6412 28.575 16.1289C28.3128 15.6166 28.1669 15.051 28.1478 14.4736C28.1287 13.8963 28.237 13.3219 28.4648 12.7929C28.6203 12.4125 28.8542 12.0707 29.1509 11.7906C29.8051 11.2733 30.3085 10.5844 30.607 9.79776C30.9055 9.01112 30.9879 8.15654 30.8452 7.32582C30.2009 2.67885 23.847 1.7859 21.9737 6.11093C21.2458 7.78141 21.7291 9.70702 21.037 11.4079C20.2129 14.1349 18.4337 16.4588 16.0374 17.9379C14.5161 18.9524 12.5473 19.1528 11.3242 20.6046C6.82579 25.2152 10.8171 33.1606 17.1292 32.0733C18.1478 31.9217 19.1168 31.5268 19.9567 30.9207C20.7966 30.3147 21.4837 29.5148 21.9617 28.5865C22.3667 27.832 23.0237 27.2502 23.8137 26.9465C24.6038 26.6428 25.4745 26.6374 26.2681 26.9313C27.0618 27.2251 27.7257 27.7987 28.1396 28.5481C28.5536 29.2976 28.6901 30.1732 28.5244 31.0163C27.3312 34.661 24.551 37.4066 23.155 40.9238C22.1109 43.226 21.1325 45.7834 21.741 48.3225C22.1528 50.239 23.2354 51.9376 24.7869 53.101C26.3384 54.2645 28.2527 54.8134 30.1724 54.6453C32.0922 54.4772 33.8864 53.6036 35.22 52.1875C36.5536 50.7714 37.3355 48.9097 37.4199 46.9497C37.0417 40.5919 38.1798 34.2354 40.737 28.4225V28.4225C43.0037 23.349 46.302 18.8231 50.414 15.1437C51.2492 14.3965 52.1382 13.7162 53.0092 13.0055C53.7894 12.3731 54.4312 11.5817 54.8935 10.6821C55.3558 9.78254 55.6285 8.79453 55.694 7.78141V6.83986C55.6641 6.63941 55.682 6.43895 55.6343 6.23849ZM9.85656 16.5651C7.72695 16.9957 5.51649 16.5524 3.70634 15.3317C1.8962 14.111 0.63292 12.2117 0.1915 10.0472C-0.912225 5.18761 2.90607 0.23083 7.76246 0H8.74686C18.3523 0.862576 19.2412 14.439 9.88042 16.5833L9.85656 16.5651Z" fill="url(#paint0_linear_1111_8)"/>
<defs>
<linearGradient id="paint0_linear_1111_8" x1="15.232" y1="-13.5886" x2="63.3616" y2="66.9312" gradientUnits="userSpaceOnUse">
<stop stop-color="#39D0B5"/>
<stop offset="1" stop-color="#527AF5"/>
</linearGradient>
</defs>
</svg>
